<svg height="100%" width="100%" id="svg" viewBox="0 0 1440 700" xmlns="http://www.w3.org/2000/svg" class="transition duration-300 ease-in-out delay-150"><path d="M 0,700 C 0,700 0,140 0,140 C 19.43790895112064,116.35171516991335 38.87581790224128,92.7034303398267 62,96 C 85.12418209775872,99.2965696601733 111.93463734215547,129.53799381060657 136,143 C 160.06536265784453,156.46200618939343 181.38563272913683,153.14459441774707 205,145 C 228.61436727086317,136.85540558225293 254.52283174129718,123.8836285184051 281,118 C 307.4771682587028,112.1163714815949 334.52304030567444,113.32089150863251 359,110 C 383.47695969432556,106.67910849136749 405.385007036005,98.83280544706486 429,117 C 452.614992963995,135.16719455293514 477.93693155030564,179.34788670310795 501,187 C 524.0630684496944,194.65211329689205 544.8672667627727,165.77564774050333 570,168 C 595.1327332372273,170.22435225949667 624.5940013986034,203.54952233487865 649,191 C 673.4059986013966,178.45047766512135 692.7567276428136,120.026262919982 716,113 C 739.2432723571864,105.973737080018 766.3790880301418,150.34542598519326 793,156 C 819.6209119698582,161.65457401480674 845.7269202366193,128.592033139245 867,109 C 888.2730797633807,89.40796686075501 904.7132310233814,83.28644145782678 929,109 C 953.2867689766186,134.71355854217322 985.4201556698556,192.26220102944782 1012,189 C 1038.5798443301444,185.73779897055218 1059.6061462971961,121.66475442438185 1085,111 C 1110.3938537028039,100.33524557561815 1140.155259141359,143.07878127302476 1160,141 C 1179.844740858641,138.92121872697524 1189.7728171373676,92.02012048351914 1211,97 C 1232.2271828626324,101.97987951648086 1264.75347230917,158.8407367928987 1294,164 C 1323.24652769083,169.1592632071013 1349.2132936259513,122.6169323448861 1373,110 C 1396.7867063740487,97.3830676551139 1418.3933531870243,118.69153382755695 1440,140 C 1440,140 1440,700 1440,700 Z" stroke="none" stroke-width="0" fill="#0693e344" class="transition-all duration-300 ease-in-out delay-150"></path><path d="M 0,700 C 0,700 0,280 0,280 C 27.707178628471624,286.28728121582105 55.41435725694325,292.57456243164205 76,279 C 96.58564274305675,265.42543756835795 110.04974960069862,231.98903148925268 132,242 C 153.95025039930138,252.01096851074732 184.38664434026228,305.4693116113472 213,310 C 241.61335565973772,314.5306883886528 268.4036730382522,270.1337220653583 291,255 C 313.5963269617478,239.8662779346417 331.9986635067288,253.99580012721952 354,258 C 376.0013364932712,262.0041998727805 401.6016729348325,255.88307742576364 425,253 C 448.3983270651675,250.11692257423636 469.59464475394134,250.47189016972612 494,265 C 518.4053552460587,279.5281098302739 546.0197480494023,308.22936189533203 573,322 C 599.9802519505977,335.77063810466797 626.3263630484494,334.61066224894586 650,331 C 673.6736369515506,327.38933775105414 694.6747997568003,321.32798910888465 714,301 C 733.3252002431997,280.67201089111535 750.9744379243494,246.07738131551534 780,234 C 809.0255620756506,221.92261868448466 849.4274485458023,232.36248562905405 873,258 C 896.5725514541977,283.63751437094595 903.3157678924412,324.47267616826855 924,328 C 944.6842321075588,331.52732383173145 979.3094798844331,297.74680969787175 1010,272 C 1040.6905201155669,246.25319030212827 1067.4463125698262,228.5400850402446 1091,238 C 1114.5536874301738,247.4599149597554 1134.9052698362618,284.09285014114994 1156,293 C 1177.0947301637382,301.90714985885006 1198.9326080851256,283.08851439515564 1226,277 C 1253.0673919148744,270.91148560484436 1285.3642978232353,277.5530922782273 1309,289 C 1332.6357021767647,300.4469077217727 1347.6102006219326,316.69911649193506 1368,316 C 1388.3897993780674,315.30088350806494 1414.1948996890337,297.6504417540325 1440,280 C 1440,280 1440,700 1440,700 Z" stroke="none" stroke-width="0" fill="#0693e366" class="transition-all duration-300 ease-in-out delay-150"></path><path d="M 0,700 C 0,700 0,420 0,420 C 23.717070171019436,422.25154423029875 47.43414034203887,424.5030884605975 70,419 C 92.56585965796113,413.4969115394025 113.98050880286391,400.23919038790893 140,395 C 166.0194911971361,389.76080961209107 196.64382444650548,392.54014998776654 224,409 C 251.35617555349452,425.45985001223346 275.44419341111416,455.6002096610249 297,460 C 318.55580658888584,464.3997903389751 337.57940190903776,443.05901136813424 361,433 C 384.42059809096224,422.94098863186576 412.23819895273493,424.1637448664383 435,422 C 457.76180104726507,419.8362551335617 475.46780228002274,414.2860091661125 498,415 C 520.5321977199773,415.7139908338875 547.8905919271742,422.69221846911194 572,425 C 596.1094080728258,427.30778153088806 616.9698300112805,424.9451169574399 644,429 C 671.0301699887195,433.0548830425601 704.2300880277037,443.5273137011287 731,445 C 757.7699119722963,446.4726862988713 778.109817877905,438.9456282380452 802,425 C 825.890182122095,411.0543717619548 853.3306404606764,390.6901733466908 875,385 C 896.6693595393236,379.3098266533092 912.5676202793894,388.29367837519186 938,388 C 963.4323797206106,387.70632162480814 998.3988784217661,378.13511315254175 1019,395 C 1039.601121578234,411.86488684745825 1045.836866033546,455.1658690146409 1070,455 C 1094.163133966454,454.8341309853591 1136.2536574440496,411.2014107888946 1164,409 C 1191.7463425559504,406.7985892111054 1205.1485041902547,446.02848782978083 1228,441 C 1250.8514958097453,435.97151217021917 1283.1523257949314,386.68463789198205 1304,390 C 1324.8476742050686,393.31536210801795 1334.2421926300196,449.23296060229086 1355,463 C 1375.7578073699804,476.76703939770914 1407.8789036849903,448.38351969885457 1440,420 C 1440,420 1440,700 1440,700 Z" stroke="none" stroke-width="0" fill="#0693e388" class="transition-all duration-300 ease-in-out delay-150"></path><path d="M 0,700 C 0,700 0,560 0,560 C 20.979177187756342,550.1662076123193 41.958354375512684,540.3324152246387 64,542 C 86.04164562448732,543.6675847753613 109.14575968570563,556.8365467137645 133,570 C 156.85424031429437,583.1634532862355 181.4586068816649,596.3213979203031 209,603 C 236.5413931183351,609.6786020796969 267.0198127876347,609.877861605023 296,605 C 324.9801872123653,600.122138394977 352.46214196779647,590.167155659605 370,593 C 387.53785803220353,595.832844340395 395.1316193411795,611.4535157565576 419,611 C 442.8683806588205,610.5464842434424 483.0113806674858,594.0187813141645 514,570 C 544.9886193325142,545.9812186858355 566.8228579888776,514.4713589867843 585,525 C 603.1771420111224,535.5286410132157 617.6971873770041,588.0957827386987 640,599 C 662.3028126229959,609.9042172613013 692.388392503106,579.1455100584208 723,574 C 753.611607496894,568.8544899415792 784.7492426105716,589.3221770276181 805,597 C 825.2507573894284,604.6778229723819 834.6146370546077,599.5657818311068 854,605 C 873.3853629453923,610.4342181688932 902.7922091709979,626.4146956479545 929,606 C 955.2077908290021,585.5853043520455 978.2165262614005,528.7754355770752 1001,513 C 1023.7834737385995,497.2245644229248 1046.3416857834,522.4835620437444 1072,529 C 1097.6583142166,535.5164379562556 1126.4167306050006,523.290316247947 1148,518 C 1169.5832693949994,512.709683752053 1183.9913917965978,514.3551729644678 1210,512 C 1236.0086082034022,509.6448270355323 1273.6177022086083,503.2889918941818 1304,522 C 1334.3822977913917,540.7110081058182 1357.537799368969,584.4888594588052 1379,595 C 1400.462200631031,605.5111405411948 1420.2311003155155,582.7555702705974 1440,560 C 1440,560 1440,700 1440,700 Z" stroke="none" stroke-width="0" fill="#0693e3ff" class="transition-all duration-300 ease-in-out delay-150"></path></svg> 